# xmcd
#
# Track frame offsets: 
#        150
#        26602
#        43686
#        64536
#        91302
#        110046
#        139932
#        154520
#        169772
#        188753
#        213201
#
# Disc length: 3203 seconds
#
# Revision: 1
# Processed by: cddbd v1.5.2PL0 Copyright (c) Steve Scherf et al.
# Submitted via: ExactAudioCopy v0.99pb5
#
DISCID=8f0c810b
DTITLE=Sam Taylor - Keep the Blues Alive
DYEAR=1999
DGENRE=Blues
TTITLE0=Keep The Blues Alive
TTITLE1=Stop Before I Drop
TTITLE2=Miss You So Bad
TTITLE3=Prayer Of A Blues Man
TTITLE4=Since I Met You Baby
TTITLE5=Do You Like It
TTITLE6=If My Pillow Could Talk
TTITLE7=Election 99'
TTITLE8=Members Only
TTITLE9=I Hear You Knocking
TTITLE10=Mother Earth
EXTD=
EXTT0=
EXTT1=
EXTT2=
EXTT3=
EXTT4=
EXTT5=
EXTT6=
EXTT7=
EXTT8=
EXTT9=
EXTT10=
PLAYORDER=
